<svg width="350" height="350" viewBox="0 0 350 350" fill="none" xmlns="http://www.w3.org/2000/svg">
<g clip-path="url(#clip0)">
<path d="M350 0H0V350H350V0Z" fill="white"/>
<g filter="url(#filter0_f)">
<path d="M175 323.936C252.012 323.936 314.442 257.255 314.442 175C314.442 92.7445 252.012 26.0635 175 26.0635C97.988 26.0635 35.5576 92.7445 35.5576 175C35.5576 257.255 97.988 323.936 175 323.936Z" fill="#63B1FF" fill-opacity="0.1"/>
</g>
<path d="M223.536 135.961L149.892 108.225C148.44 107.678 146.847 108.492 146.335 110.044L113.179 210.472C112.666 212.023 113.429 213.725 114.881 214.272L188.525 242.008C189.977 242.555 191.57 241.741 192.082 240.19L225.238 139.761C225.75 138.21 224.988 136.509 223.536 135.961Z" stroke="#CCDDF4" stroke-width="12"/>
<g filter="url(#filter1_f)">
<path d="M194.952 264.957C215.36 264.957 231.904 263.624 231.904 261.979C231.904 260.334 215.36 259 194.952 259C174.544 259 158 260.334 158 261.979C158 263.624 174.544 264.957 194.952 264.957Z" fill="#B7DBFF"/>
</g>
<mask id="mask0" mask-type="alpha" maskUnits="userSpaceOnUse" x="112" y="107" width="114" height="135">
<path d="M223.284 135.727L149.641 107.991C148.188 107.444 146.596 108.258 146.083 109.809L112.927 210.238C112.415 211.789 113.177 213.49 114.63 214.037L188.273 241.774C189.726 242.321 191.318 241.507 191.831 239.955L224.987 139.527C225.499 137.975 224.737 136.274 223.284 135.727Z" fill="white"/>
</mask>
<g mask="url(#mask0)">
<path fill-rule="evenodd" clip-rule="evenodd" d="M153.292 182.586C152.912 182.372 152.519 182.173 152.114 181.992L152.08 181.978C147.943 180.146 143.529 180.598 140.252 182.777C139.972 182.932 139.697 183.092 139.432 183.27C139.154 183.422 138.881 183.583 138.618 183.759C138.343 183.91 138.074 184.068 137.813 184.241C137.534 184.396 137.259 184.556 136.993 184.733C136.716 184.886 136.443 185.046 136.18 185.221C135.902 185.374 135.63 185.534 135.365 185.71C135.09 185.862 134.82 186.021 134.559 186.195C134.281 186.348 134.007 186.508 133.743 186.684C133.465 186.837 133.193 186.997 132.929 187.173C132.655 187.324 132.386 187.482 132.126 187.654C131.849 187.807 131.576 187.967 131.313 188.142C131.032 188.296 130.758 188.459 130.491 188.636C130.214 188.788 129.94 188.949 129.677 189.125C129.404 189.275 129.134 189.433 128.874 189.606C128.593 189.76 128.319 189.923 128.052 190.1C127.776 190.252 127.504 190.41 127.242 190.585C126.963 190.738 126.69 190.9 126.425 191.076C126.151 191.227 125.882 191.385 125.622 191.558C123.381 192.788 121.567 194.757 120.582 197.34C118.205 203.578 121.532 210.97 128.017 213.853C132.157 215.693 136.577 215.243 139.859 213.063C140.138 212.909 140.413 212.748 140.68 212.571C140.956 212.419 141.229 212.259 141.492 212.084C141.771 211.93 142.043 211.769 142.307 211.594C142.581 211.443 142.85 211.285 143.111 211.111C143.391 210.958 143.666 210.796 143.931 210.62C144.209 210.467 144.481 210.306 144.746 210.13C145.02 209.979 145.289 209.82 145.55 209.647C145.829 209.494 146.104 209.333 146.37 209.155C146.647 209.003 146.92 208.843 147.183 208.668C147.461 208.515 147.734 208.354 147.997 208.178C148.271 208.027 148.541 207.869 148.801 207.696C149.082 207.542 149.356 207.381 149.622 207.204C149.899 207.051 150.172 206.89 150.436 206.714C150.71 206.564 150.979 206.405 151.24 206.232C151.518 206.079 151.79 205.919 152.053 205.744C152.333 205.591 152.608 205.429 152.874 205.253C153.152 205.099 153.425 204.938 153.688 204.763C153.962 204.612 154.231 204.454 154.492 204.28C156.728 203.052 158.541 201.089 159.527 198.515C161.765 192.67 158.988 185.805 153.292 182.586Z" fill="#EFF7FF"/>
<path fill-rule="evenodd" clip-rule="evenodd" d="M123.673 193.374C128.555 189.098 136.374 189.829 141.141 195.006C145.908 200.182 145.82 207.848 140.944 212.131C136.068 216.415 128.25 215.695 123.476 210.525C118.702 205.354 118.779 197.688 123.647 193.397" fill="#EFF7FF"/>
<path fill-rule="evenodd" clip-rule="evenodd" d="M123.589 192.382C128.471 188.106 136.29 188.836 141.056 194.014C145.823 199.19 145.735 206.856 140.86 211.139C135.984 215.422 128.166 214.703 123.392 209.533C118.618 204.362 118.694 196.696 123.563 192.405" fill="#EFF7FF"/>
<path fill-rule="evenodd" clip-rule="evenodd" d="M123.504 191.391C128.386 187.115 136.205 187.845 140.972 193.022C145.739 198.199 145.65 205.864 140.775 210.148C135.9 214.43 128.081 213.712 123.307 208.541C118.533 203.37 118.609 195.705 123.478 191.414" fill="#EFF7FF"/>
<path fill-rule="evenodd" clip-rule="evenodd" d="M123.42 190.399C128.302 186.123 136.121 186.853 140.888 192.03C145.655 197.206 145.566 204.872 140.691 209.156C135.816 213.438 127.997 212.72 123.223 207.549C118.449 202.378 118.525 194.712 123.394 190.422" fill="#EFF7FF"/>
<path fill-rule="evenodd" clip-rule="evenodd" d="M123.335 189.406C128.218 185.13 136.036 185.861 140.803 191.037C145.57 196.214 145.482 203.88 140.607 208.163C135.731 212.446 127.913 211.727 123.139 206.557C118.365 201.386 118.442 193.72 123.31 189.429" fill="#EFF7FF"/>
<path fill-rule="evenodd" clip-rule="evenodd" d="M123.251 188.414C128.133 184.138 135.952 184.869 140.719 190.045C145.486 195.222 145.398 202.888 140.522 207.171C135.647 211.454 127.828 210.735 123.054 205.565C118.28 200.394 118.357 192.727 123.225 188.437" fill="#EFF7FF"/>
<path fill-rule="evenodd" clip-rule="evenodd" d="M123.167 187.423C128.049 183.147 135.868 183.878 140.635 189.054C145.401 194.231 145.314 201.897 140.438 206.179C135.562 210.463 127.744 209.744 122.97 204.574C118.196 199.403 118.272 191.736 123.141 187.445" fill="#EFF7FF"/>
<path fill-rule="evenodd" clip-rule="evenodd" d="M123.082 186.431C127.965 182.155 135.783 182.885 140.55 188.062C145.317 193.239 145.228 200.904 140.353 205.187C135.478 209.471 127.659 208.752 122.885 203.582C118.111 198.411 118.188 190.744 123.056 186.453" fill="#EFF7FF"/>
<path fill-rule="evenodd" clip-rule="evenodd" d="M122.998 185.439C127.881 181.163 135.699 181.893 140.466 187.069C145.233 192.247 145.144 199.912 140.269 204.195C135.394 208.478 127.575 207.76 122.801 202.589C118.027 197.418 118.104 189.752 122.972 185.461" fill="#EFF7FF"/>
<path fill-rule="evenodd" clip-rule="evenodd" d="M122.914 184.446C127.796 180.17 135.615 180.901 140.382 186.077C145.148 191.254 145.06 198.919 140.185 203.203C135.309 207.486 127.491 206.767 122.716 201.596C117.942 196.426 118.019 188.76 122.888 184.469" fill="#EFF7FF"/>
<path fill-rule="evenodd" clip-rule="evenodd" d="M122.829 183.455C127.712 179.179 135.53 179.91 140.297 185.086C145.064 190.263 144.976 197.928 140.1 202.212C135.225 206.495 127.406 205.776 122.632 200.605C117.859 195.435 117.935 187.768 122.803 183.478" fill="#EFF7FF"/>
<path fill-rule="evenodd" clip-rule="evenodd" d="M122.745 182.463C127.627 178.187 135.446 178.918 140.213 184.094C144.98 189.271 144.892 196.936 140.016 201.219C135.141 205.503 127.322 204.784 122.548 199.613C117.774 194.443 117.85 186.776 122.719 182.485" fill="#EFF7FF"/>
<path fill-rule="evenodd" clip-rule="evenodd" d="M122.661 181.471C127.543 177.195 135.362 177.925 140.129 183.102C144.895 188.279 144.807 195.944 139.932 200.227C135.056 204.511 127.238 203.792 122.464 198.621C117.689 193.451 117.766 185.784 122.635 181.493" fill="#EFF7FF"/>
<path fill-rule="evenodd" clip-rule="evenodd" d="M122.576 180.479C127.459 176.203 135.277 176.933 140.044 182.11C144.811 187.287 144.722 194.952 139.847 199.235C134.972 203.519 127.153 202.8 122.38 197.629C117.605 192.459 117.682 184.792 122.55 180.501" fill="#EFF7FF"/>
<path fill-rule="evenodd" clip-rule="evenodd" d="M122.492 179.488C127.374 175.212 135.193 175.942 139.96 181.119C144.727 186.296 144.638 193.961 139.763 198.244C134.887 202.527 127.069 201.809 122.294 196.638C117.521 191.467 117.597 183.801 122.466 179.51" fill="#EFF7FF"/>
<path fill-rule="evenodd" clip-rule="evenodd" d="M122.407 178.496C127.29 174.22 135.108 174.949 139.875 180.126C144.642 185.303 144.554 192.968 139.678 197.252C134.803 201.535 126.984 200.817 122.211 195.646C117.437 190.475 117.513 182.809 122.381 178.518" fill="#EFF7FF"/>
<path fill-rule="evenodd" clip-rule="evenodd" d="M122.323 177.503C127.206 173.227 135.024 173.957 139.791 179.134C144.558 184.311 144.47 191.976 139.594 196.26C134.719 200.543 126.9 199.824 122.127 194.653C117.353 189.483 117.429 181.817 122.297 177.526" fill="#EFF7FF"/>
<path fill-rule="evenodd" clip-rule="evenodd" d="M122.238 176.511C127.121 172.235 134.94 172.965 139.706 178.142C144.473 183.319 144.385 190.984 139.51 195.267C134.634 199.551 126.816 198.832 122.042 193.661C117.268 188.491 117.344 180.824 122.213 176.533" fill="#EFF7FF"/>
<path fill-rule="evenodd" clip-rule="evenodd" d="M122.154 175.52C127.037 171.244 134.855 171.974 139.622 177.151C144.389 182.328 144.3 189.993 139.426 194.276C134.55 198.56 126.731 197.841 121.958 192.67C117.183 187.5 117.26 179.833 122.128 175.542" fill="#EFF7FF"/>
<path fill-rule="evenodd" clip-rule="evenodd" d="M122.07 174.528C126.952 170.252 134.771 170.982 139.538 176.159C144.305 181.336 144.216 189.001 139.341 193.284C134.466 197.567 126.647 196.849 121.873 191.678C117.099 186.507 117.175 178.841 122.044 174.55" fill="#EFF7FF"/>
<path d="M223.284 135.727L149.641 107.991C148.188 107.444 146.596 108.258 146.083 109.809L112.927 210.238C112.415 211.789 113.177 213.49 114.63 214.037L188.273 241.774C189.726 242.321 191.318 241.507 191.831 239.955L224.987 139.527C225.499 137.975 224.737 136.274 223.284 135.727Z" fill="#C1D7EF"/>
</g>
<g filter="url(#filter2_d)">
<path d="M147.587 107L226 136.038L204.238 200.848C196.603 223.588 172.859 235.522 151.206 227.503L112 212.984L147.587 107Z" fill="white"/>
</g>
<path fill-rule="evenodd" clip-rule="evenodd" d="M176.463 176.652C176.031 176.487 175.587 176.342 175.132 176.214L175.094 176.204C170.451 174.918 165.794 175.953 162.565 178.564C162.285 178.755 162.012 178.952 161.75 179.164C161.472 179.353 161.201 179.55 160.941 179.76C160.667 179.947 160.4 180.141 160.143 180.349C159.863 180.54 159.589 180.737 159.327 180.949C159.05 181.138 158.779 181.333 158.519 181.543C158.242 181.733 157.97 181.929 157.711 182.14C157.435 182.328 157.167 182.523 156.909 182.731C156.631 182.921 156.359 183.117 156.099 183.327C155.821 183.517 155.55 183.713 155.29 183.924C155.016 184.111 154.749 184.304 154.492 184.511C154.215 184.7 153.944 184.896 153.684 185.106C153.404 185.296 153.13 185.495 152.868 185.707C152.591 185.896 152.319 186.093 152.059 186.303C151.786 186.49 151.518 186.683 151.261 186.89C150.981 187.081 150.708 187.28 150.446 187.492C150.169 187.68 149.899 187.875 149.64 188.084C149.362 188.274 149.089 188.472 148.829 188.683C148.555 188.87 148.287 189.063 148.031 189.27C145.79 190.796 144.097 193.003 143.365 195.714C141.597 202.264 146.062 209.213 153.342 211.239C157.989 212.532 162.652 211.499 165.886 208.887C166.166 208.696 166.44 208.499 166.701 208.287C166.979 208.098 167.25 207.902 167.51 207.692C167.787 207.503 168.058 207.306 168.318 207.096C168.593 206.909 168.86 206.715 169.117 206.507C169.397 206.316 169.67 206.119 169.932 205.907C170.21 205.718 170.481 205.521 170.741 205.311C171.015 205.124 171.283 204.93 171.54 204.722C171.82 204.532 172.093 204.334 172.355 204.122C172.632 203.933 172.903 203.738 173.163 203.528C173.441 203.338 173.712 203.141 173.972 202.931C174.246 202.744 174.513 202.55 174.77 202.342C175.05 202.152 175.324 201.955 175.586 201.743C175.863 201.553 176.134 201.357 176.394 201.146C176.669 200.959 176.936 200.765 177.193 200.558C177.471 200.369 177.741 200.173 178.001 199.963C178.281 199.772 178.554 199.575 178.816 199.363C179.094 199.174 179.365 198.977 179.625 198.766C179.899 198.579 180.167 198.385 180.424 198.178C182.66 196.655 184.352 194.454 185.087 191.75C186.754 185.613 182.942 179.117 176.463 176.652Z" fill="#EFF7FF"/>
<path fill-rule="evenodd" clip-rule="evenodd" d="M146.155 191.377C150.819 186.447 159.249 186.122 164.988 190.65C170.728 195.178 171.605 202.846 166.949 207.782C162.293 212.718 153.864 213.054 148.118 208.533C142.372 204.012 141.482 196.345 146.13 191.403" fill="#EFF7FF"/>
<path fill-rule="evenodd" clip-rule="evenodd" d="M145.942 190.396C150.606 185.467 159.036 185.142 164.776 189.67C170.515 194.198 171.392 201.866 166.736 206.802C162.08 211.737 153.651 212.074 147.905 207.553C142.159 203.032 141.269 195.364 145.917 190.422" fill="#EFF7FF"/>
<path fill-rule="evenodd" clip-rule="evenodd" d="M145.729 189.416C150.394 184.486 158.824 184.161 164.563 188.689C170.302 193.217 171.18 200.886 166.524 205.821C161.867 210.757 153.439 211.093 147.693 206.572C141.947 202.052 141.057 194.384 145.705 189.442" fill="#EFF7FF"/>
<path fill-rule="evenodd" clip-rule="evenodd" d="M145.517 188.435C150.181 183.506 158.611 183.181 164.35 187.709C170.09 192.237 170.967 199.905 166.311 204.841C161.654 209.776 153.226 210.113 147.48 205.592C141.734 201.071 140.844 193.403 145.492 188.461" fill="#EFF7FF"/>
<path fill-rule="evenodd" clip-rule="evenodd" d="M145.304 187.455C149.969 182.526 158.399 182.201 164.138 186.728C169.877 191.256 170.755 198.925 166.098 203.86C161.442 208.796 153.013 209.132 147.267 204.611C141.521 200.091 140.632 192.423 145.28 187.481" fill="#EFF7FF"/>
<path fill-rule="evenodd" clip-rule="evenodd" d="M145.092 186.474C149.756 181.545 158.186 181.22 163.925 185.748C169.665 190.276 170.542 197.944 165.886 202.88C161.23 207.815 152.801 208.152 147.055 203.631C141.309 199.11 140.419 191.443 145.067 186.5" fill="#EFF7FF"/>
<path fill-rule="evenodd" clip-rule="evenodd" d="M144.879 185.494C149.543 180.565 157.973 180.24 163.713 184.768C169.452 189.296 170.329 196.964 165.673 201.899C161.017 206.835 152.588 207.171 146.842 202.65C141.096 198.13 140.206 190.462 144.854 185.52" fill="#EFF7FF"/>
<path fill-rule="evenodd" clip-rule="evenodd" d="M144.666 184.513C149.331 179.584 157.761 179.259 163.5 183.787C169.239 188.315 170.117 195.983 165.461 200.919C160.804 205.855 152.376 206.191 146.63 201.67C140.884 197.149 139.994 189.482 144.642 184.539" fill="#EFF7FF"/>
<path fill-rule="evenodd" clip-rule="evenodd" d="M144.454 183.533C149.118 178.604 157.548 178.279 163.287 182.807C169.027 187.335 169.904 195.003 165.248 199.938C160.591 204.874 152.163 205.21 146.417 200.69C140.671 196.169 139.781 188.501 144.429 183.559" fill="#EFF7FF"/>
<path fill-rule="evenodd" clip-rule="evenodd" d="M144.241 182.553C148.906 177.624 157.336 177.299 163.075 181.827C168.814 186.355 169.692 194.023 165.035 198.959C160.379 203.895 151.95 204.231 146.204 199.71C140.458 195.189 139.569 187.522 144.217 182.579" fill="#EFF7FF"/>
<path fill-rule="evenodd" clip-rule="evenodd" d="M144.029 181.573C148.693 176.644 157.123 176.319 162.863 180.847C168.602 185.375 169.479 193.043 164.823 197.978C160.167 202.914 151.738 203.25 145.992 198.73C140.246 194.209 139.356 186.541 144.004 181.599" fill="#EFF7FF"/>
<path fill-rule="evenodd" clip-rule="evenodd" d="M143.816 180.592C148.48 175.663 156.91 175.338 162.65 179.866C168.389 184.394 169.266 192.062 164.61 196.998C159.954 201.934 151.525 202.27 145.779 197.749C140.033 193.228 139.143 185.561 143.791 180.618" fill="#EFF7FF"/>
<path fill-rule="evenodd" clip-rule="evenodd" d="M143.603 179.612C148.268 174.683 156.698 174.358 162.437 178.886C168.176 183.414 169.054 191.082 164.398 196.017C159.741 200.953 151.313 201.289 145.567 196.769C139.821 192.248 138.931 184.58 143.579 179.638" fill="#EFF7FF"/>
<path fill-rule="evenodd" clip-rule="evenodd" d="M143.391 178.631C148.055 173.702 156.485 173.377 162.224 177.905C167.964 182.433 168.841 190.101 164.185 195.037C159.528 199.973 151.1 200.309 145.354 195.788C139.608 191.267 138.718 183.6 143.366 178.657" fill="#EFF7FF"/>
<path fill-rule="evenodd" clip-rule="evenodd" d="M143.178 177.651C147.843 172.722 156.273 172.397 162.012 176.925C167.751 181.453 168.629 189.121 163.972 194.057C159.316 198.992 150.887 199.328 145.141 194.808C139.395 190.287 138.506 182.619 143.154 177.677" fill="#EFF7FF"/>
<path fill-rule="evenodd" clip-rule="evenodd" d="M142.965 176.67C147.63 171.741 156.06 171.416 161.799 175.944C167.538 180.472 168.416 188.14 163.759 193.076C159.103 198.012 150.675 198.348 144.929 193.827C139.183 189.306 138.293 181.639 142.941 176.697" fill="#EFF7FF"/>
<path fill-rule="evenodd" clip-rule="evenodd" d="M142.753 175.69C147.418 170.761 155.847 170.436 161.587 174.964C167.326 179.492 168.203 187.16 163.547 192.096C158.891 197.031 150.462 197.367 144.716 192.847C138.97 188.326 138.08 180.658 142.728 175.716" fill="#EFF7FF"/>
<path fill-rule="evenodd" clip-rule="evenodd" d="M142.54 174.71C147.205 169.78 155.635 169.455 161.374 173.983C167.113 178.511 167.991 186.179 163.335 191.115C158.678 196.051 150.25 196.387 144.504 191.866C138.758 187.345 137.868 179.678 142.516 174.736" fill="#EFF7FF"/>
<path fill-rule="evenodd" clip-rule="evenodd" d="M142.328 173.729C146.992 168.8 155.422 168.475 161.161 173.003C166.901 177.531 167.778 185.199 163.122 190.135C158.465 195.07 150.037 195.407 144.291 190.886C138.545 186.365 137.655 178.697 142.303 173.755" fill="#EFF7FF"/>
<path fill-rule="evenodd" clip-rule="evenodd" d="M142.115 172.749C146.78 167.82 155.21 167.494 160.949 172.022C166.688 176.55 167.566 184.219 162.909 189.154C158.253 194.09 149.824 194.426 144.078 189.905C138.332 185.385 137.443 177.717 142.091 172.775" fill="#EFF7FF"/>
<g filter="url(#filter3_d)">
<path d="M206.563 119.455L174.57 107.354C174.053 107.158 173.493 107.425 173.32 107.949L170.315 117.012C170.141 117.536 170.419 118.119 170.935 118.315L202.928 130.416C203.445 130.611 204.005 130.345 204.179 129.821L207.183 120.758C207.357 120.234 207.079 119.65 206.563 119.455Z" fill="#CCDDF4"/>
</g>
<g filter="url(#filter4_d)">
<path d="M114.107 97.6145C129.815 132.811 139.782 163.013 132.992 166.893C126.667 174.76 99.8088 148.507 85.1932 112.705C70.7245 70.5495 63.8404 46.267 70.631 42.3869C77.4215 38.5069 95.3028 64.3004 114.107 97.6145Z" fill="#CCDDF4"/>
</g>
<path d="M104.152 110.473C110.619 122.117 116.99 133.208 122.597 142.97C125.811 148.564 128.772 153.721 131.358 158.295C134.907 164.573 137.746 169.753 139.551 173.456C140.453 175.308 141.096 176.789 141.439 177.853C141.611 178.386 141.707 178.811 141.724 179.125C141.741 179.44 141.678 179.629 141.55 179.712C141.549 179.712 141.545 179.711 141.537 179.707C141.522 179.7 141.502 179.686 141.476 179.662C141.423 179.615 141.353 179.537 141.266 179.427C141.091 179.208 140.852 178.87 140.55 178.418C139.947 177.515 139.099 176.16 138.036 174.407C135.91 170.902 132.924 165.806 129.325 159.553C122.124 147.046 112.464 129.908 102.292 111.591C92.1214 93.2767 84.3865 76.0054 79.2774 63.2601C76.7227 56.8875 74.8246 51.6466 73.6065 47.973C72.9974 46.1361 72.5586 44.6914 72.2927 43.6931C72.1597 43.1939 72.0703 42.8072 72.0243 42.5392C72.0014 42.405 71.9896 42.302 71.9884 42.2302C71.9878 42.1942 71.9899 42.1679 71.9938 42.1501C71.9956 42.1417 71.9976 42.1367 71.999 42.1338C71.9995 42.1341 72.0002 42.1346 72.001 42.1351C72.0104 42.1417 72.0241 42.1559 72.042 42.1813C72.0774 42.2313 72.1222 42.3142 72.1765 42.4308C72.2848 42.6633 72.4276 43.0221 72.6064 43.4999C72.8821 44.2365 73.2422 45.2532 73.6911 46.5206C73.8244 46.897 73.9656 47.2955 74.1147 47.7154C75.4167 51.382 77.3238 56.6736 79.9094 63.0673C85.0803 75.8542 92.9657 93.0496 104.152 110.473ZM71.9951 42.1318C71.9951 42.1318 71.9952 42.1318 71.9956 42.132C71.9952 42.1319 71.9951 42.1318 71.9951 42.1318Z" fill="#F2F9FF" stroke="#919191" stroke-width="0.1"/>
<circle cx="171.5" cy="160.5" r="11.5" fill="#EFF7FF"/>
</g>
<defs>
<filter id="filter0_f" x="-24.4424" y="-33.9365" width="398.884" height="417.872" filterUnits="userSpaceOnUse" color-interpolation-filters="sRGB">
<feFlood flood-opacity="0" result="BackgroundImageFix"/>
<feBlend mode="normal" in="SourceGraphic" in2="BackgroundImageFix" result="shape"/>
<feGaussianBlur stdDeviation="30" result="effect1_foregroundBlur"/>
</filter>
<filter id="filter1_f" x="146" y="247" width="97.9044" height="29.9575" filterUnits="userSpaceOnUse" color-interpolation-filters="sRGB">
<feFlood flood-opacity="0" result="BackgroundImageFix"/>
<feBlend mode="normal" in="SourceGraphic" in2="BackgroundImageFix" result="shape"/>
<feGaussianBlur stdDeviation="6" result="effect1_foregroundBlur"/>
</filter>
<filter id="filter2_d" x="110" y="106" width="118" height="127" filterUnits="userSpaceOnUse" color-interpolation-filters="sRGB">
<feFlood flood-opacity="0" result="BackgroundImageFix"/>
<feColorMatrix in="SourceAlpha" type="matrix" values="0 0 0 0 0 0 0 0 0 0 0 0 0 0 0 0 0 0 127 0"/>
<feOffset dy="1"/>
<feGaussianBlur stdDeviation="1"/>
<feColorMatrix type="matrix" values="0 0 0 0 0.704167 0 0 0 0 0.704167 0 0 0 0 0.704167 0 0 0 1 0"/>
<feBlend mode="normal" in2="BackgroundImageFix" result="effect1_dropShadow"/>
<feBlend mode="normal" in="SourceGraphic" in2="effect1_dropShadow" result="shape"/>
</filter>
<filter id="filter3_d" x="169.263" y="107.29" width="38.9722" height="25.1904" filterUnits="userSpaceOnUse" color-interpolation-filters="sRGB">
<feFlood flood-opacity="0" result="BackgroundImageFix"/>
<feColorMatrix in="SourceAlpha" type="matrix" values="0 0 0 0 0 0 0 0 0 0 0 0 0 0 0 0 0 0 127 0"/>
<feOffset dy="1"/>
<feGaussianBlur stdDeviation="0.5"/>
<feColorMatrix type="matrix" values="0 0 0 0 0.519358 0 0 0 0 0.662532 0 0 0 0 0.804167 0 0 0 1 0"/>
<feBlend mode="normal" in2="BackgroundImageFix" result="effect1_dropShadow"/>
<feBlend mode="normal" in="SourceGraphic" in2="effect1_dropShadow" result="shape"/>
</filter>
<filter id="filter4_d" x="43" y="21" width="117.158" height="176.293" filterUnits="userSpaceOnUse" color-interpolation-filters="sRGB">
<feFlood flood-opacity="0" result="BackgroundImageFix"/>
<feColorMatrix in="SourceAlpha" type="matrix" values="0 0 0 0 0 0 0 0 0 0 0 0 0 0 0 0 0 0 127 0"/>
<feOffset dy="4"/>
<feGaussianBlur stdDeviation="12.5"/>
<feColorMatrix type="matrix" values="0 0 0 0 0.727865 0 0 0 0 0.812303 0 0 0 0 0.895833 0 0 0 0.5 0"/>
<feBlend mode="normal" in2="BackgroundImageFix" result="effect1_dropShadow"/>
<feBlend mode="normal" in="SourceGraphic" in2="effect1_dropShadow" result="shape"/>
</filter>
<clipPath id="clip0">
<rect width="350" height="350" fill="white"/>
</clipPath>
</defs>
</svg>
